<svg width="102" height="72" xmlns="http://www.w3.org/2000/svg" xmlns:xlink="http://www.w3.org/1999/xlink" xml:space="preserve" overflow="hidden"><defs><clipPath id="clip0"><rect x="33" y="263" width="102" height="72"/></clipPath></defs><g clip-path="url(#clip0)" transform="translate(-33 -263)"><path d="M121.754 334 46.246 334C39.4931 334 34 328.914 34 322.661L34 275.339C34 269.086 39.4931 264 46.246 264L56.8325 264C57.5689 264 58.1637 264.55 58.1637 265.233 58.1637 265.915 57.5689 266.465 56.8325 266.465L46.246 266.465C40.9659 266.465 36.6621 270.442 36.6621 275.339L36.6621 322.661C36.6621 327.55 40.957 331.535 46.246 331.535L121.754 331.535C127.034 331.535 131.338 327.558 131.338 322.661L131.338 275.339C131.338 270.45 127.043 266.465 121.754 266.465L111.168 266.465C110.431 266.465 109.836 265.915 109.836 265.233 109.836 264.55 110.431 264 111.168 264L121.754 264C128.507 264 134 269.086 134 275.339L134 322.661C134 328.914 128.507 334 121.754 334Z" stroke="#FFFFFF" stroke-width="2.29167" stroke-miterlimit="8" fill="#FFFFFF" fill-rule="evenodd"/></g></svg>