<svg width="94" height="100" xmlns="http://www.w3.org/2000/svg" xmlns:xlink="http://www.w3.org/1999/xlink" xml:space="preserve" overflow="hidden"><defs><clipPath id="clip0"><rect x="2949" y="726" width="94" height="100"/></clipPath></defs><g clip-path="url(#clip0)" transform="translate(-2949 -726)"><path d="M2996 825C2970.63 825 2950 806.138 2950 782.949 2950 782.424 2950.46 782 2951.04 782L3040.96 782C3041.54 782 3042 782.424 3042 782.949 3042 806.138 3021.37 825 2996 825ZM2952.09 783.898C2952.64 805.6 2972.13 823.102 2996 823.102 3019.87 823.102 3039.36 805.6 3039.91 783.898L2952.08 783.898Z" stroke="#370054" stroke-width="2.29167" stroke-miterlimit="8" fill="#FFFFFF" fill-rule="evenodd"/><path d="M2996 825C2984.78 825 2976 806.53 2976 782.949 2976 782.424 2976.46 782 2977.02 782 2977.59 782 2978.05 782.424 2978.05 782.949 2978.05 804.715 2986.27 823.102 2996 823.102 3005.73 823.102 3013.95 804.715 3013.95 782.949 3013.95 782.424 3014.41 782 3014.98 782 3015.54 782 3016 782.424 3016 782.949 3016 806.53 3007.22 825 2996 825Z" stroke="#370054" stroke-width="2.29167" stroke-miterlimit="8" fill="#FFFFFF" fill-rule="evenodd"/><path d="M2959.04 807C2958.61 807 2958.2 806.746 2958.06 806.336 2957.87 805.828 2958.16 805.268 2958.7 805.099 2968.93 801.81 2982.18 800 2996 800 3009.83 800 3023.07 801.81 3033.3 805.099 3033.84 805.275 3034.13 805.828 3033.94 806.336 3033.76 806.844 3033.17 807.118 3032.63 806.942 3022.61 803.718 3009.6 801.947 2996 801.947 2982.41 801.947 2969.39 803.725 2959.37 806.942 2959.26 806.974 2959.15 806.994 2959.04 806.994Z" stroke="#370054" stroke-width="2.29167" stroke-miterlimit="8" fill="#FFFFFF" fill-rule="evenodd"/><path d="M2996 735C2995.45 735 2995 734.593 2995 734.088L2995 727.912C2995 727.407 2995.45 727 2996 727 2996.55 727 2997 727.407 2997 727.912L2997 734.088C2997 734.593 2996.55 735 2996 735Z" stroke="#370054" stroke-width="2.29167" stroke-miterlimit="8" fill="#FFFFFF" fill-rule="evenodd"/><path d="M2982.07 739C2981.75 739 2981.44 738.82 2981.27 738.5L2979.12 734.501C2978.87 734.021 2979.02 733.414 2979.46 733.133 2979.91 732.859 2980.48 733.02 2980.73 733.5L2982.88 737.498C2983.13 737.979 2982.98 738.586 2982.54 738.867 2982.39 738.96 2982.23 739 2982.07 739Z" stroke="#370054" stroke-width="2.29167" stroke-miterlimit="8" fill="#FFFFFF" fill-rule="evenodd"/><path d="M2971.98 748C2971.81 748 2971.64 747.963 2971.47 747.877L2965.51 744.732C2965.02 744.479 2964.86 743.909 2965.14 743.464 2965.42 743.018 2966.04 742.87 2966.53 743.123L2972.49 746.267C2972.98 746.521 2973.14 747.09 2972.86 747.536 2972.68 747.833 2972.34 748 2971.98 748Z" stroke="#370054" stroke-width="2.29167" stroke-miterlimit="8" fill="#FFFFFF" fill-rule="evenodd"/><path d="M3027.94 761 3023.06 761C3022.47 761 3022 760.553 3022 760 3022 759.447 3022.47 759 3023.06 759L3027.94 759C3028.53 759 3029 759.447 3029 760 3029 760.553 3028.53 761 3027.94 761Z" stroke="#370054" stroke-width="2.29167" stroke-miterlimit="8" fill="#FFFFFF" fill-rule="evenodd"/><path d="M2968.94 761 2964.06 761C2963.47 761 2963 760.553 2963 760 2963 759.447 2963.47 759 2964.06 759L2968.94 759C2969.53 759 2970 759.447 2970 760 2970 760.553 2969.53 761 2968.94 761Z" stroke="#370054" stroke-width="2.29167" stroke-miterlimit="8" fill="#FFFFFF" fill-rule="evenodd"/><path d="M3020.02 748C3019.67 748 3019.33 747.833 3019.14 747.535 3018.86 747.089 3019.02 746.526 3019.51 746.265L3025.47 743.123C3025.96 742.869 3026.59 743.018 3026.86 743.464 3027.14 743.911 3026.98 744.474 3026.49 744.734L3020.53 747.876C3020.36 747.963 3020.19 748 3020.02 748Z" stroke="#370054" stroke-width="2.29167" stroke-miterlimit="8" fill="#FFFFFF" fill-rule="evenodd"/><path d="M3009.93 739C3009.77 739 3009.61 738.953 3009.46 738.867 3009.02 738.593 3008.87 737.979 3009.12 737.498L3011.27 733.5C3011.52 733.02 3012.09 732.859 3012.54 733.133 3012.98 733.407 3013.13 734.021 3012.88 734.501L3010.73 738.5C3010.56 738.82 3010.25 739 3009.93 739Z" stroke="#370054" stroke-width="2.29167" stroke-miterlimit="8" fill="#FFFFFF" fill-rule="evenodd"/><path d="M3006.95 778C3006.38 778 3005.93 777.566 3005.93 777.029L3005.93 775.016C3005.93 773.832 3006.45 772.745 3007.38 772.026 3011.55 768.777 3013.95 764.001 3013.95 758.913 3013.95 754.26 3011.99 749.911 3008.44 746.681 3004.9 743.458 3000.24 741.769 2995.31 741.956 2985.68 742.299 2977.95 750.001 2978.06 759.114 2978.12 764.117 2980.51 768.822 2984.63 772.013 2985.54 772.725 2986.08 773.838 2986.08 775.003L2986.08 777.023C2986.08 777.56 2985.62 777.993 2985.06 777.993 2984.49 777.993 2984.03 777.56 2984.03 777.023L2984.03 775.003C2984.03 774.414 2983.76 773.858 2983.32 773.515 2978.74 769.955 2976.07 764.719 2976 759.14 2975.87 748.979 2984.49 740.397 2995.23 740.015 3000.72 739.814 3005.92 741.685 3009.87 745.277 3013.82 748.875 3016 753.716 3016 758.907 3016 764.577 3013.33 769.903 3008.68 773.521 3008.23 773.871 3007.97 774.408 3007.97 775.01L3007.97 777.023C3007.97 777.56 3007.51 777.993 3006.94 777.993Z" stroke="#370054" stroke-width="2.29167" stroke-miterlimit="8" fill="#FFFFFF" fill-rule="evenodd"/><path d="M2984.04 757C2983.93 757 2983.84 756.987 2983.73 756.956 2983.19 756.805 2982.87 756.278 2983.05 755.781 2983.94 753.144 2985.83 750.794 2988.36 749.174 2988.83 748.872 2989.48 748.973 2989.81 749.4 2990.14 749.827 2990.03 750.411 2989.56 750.713 2987.4 752.095 2985.8 754.092 2985.04 756.334 2984.9 756.742 2984.49 757 2984.05 757Z" stroke="#370054" stroke-width="2.29167" stroke-miterlimit="8" fill="#FFFFFF" fill-rule="evenodd"/><path d="M2996 778C2995.45 778 2995 777.532 2995 776.952L2995 769.048C2995 768.468 2995.45 768 2996 768 2996.55 768 2997 768.468 2997 769.048L2997 776.952C2997 777.532 2996.55 778 2996 778Z" stroke="#370054" stroke-width="2.29167" stroke-miterlimit="8" fill="#FFFFFF" fill-rule="evenodd"/><path d="M2995.99 770C2995.76 770 2995.51 769.93 2995.32 769.784L2992.34 767.532C2991.92 767.212 2991.88 766.657 2992.26 766.296 2992.63 765.934 2993.28 765.899 2993.7 766.22L2996 767.964 2998.3 766.22C2998.72 765.899 2999.37 765.934 2999.74 766.296 3000.12 766.657 3000.08 767.212 2999.66 767.532L2996.68 769.784C2996.49 769.93 2996.24 770 2996.01 770Z" stroke="#370054" stroke-width="2.29167" stroke-miterlimit="8" fill="#FFFFFF" fill-rule="evenodd"/></g></svg>