<svg width="110" height="130" xmlns="http://www.w3.org/2000/svg" xmlns:xlink="http://www.w3.org/1999/xlink" xml:space="preserve" overflow="hidden"><defs><clipPath id="clip0"><rect x="133" y="744" width="110" height="134"/></clipPath></defs><g clip-path="url(#clip0)" transform="translate(-133 -744)"><path d="M205.515 877 171.475 877C169.004 877 167 875.202 167 872.985 167 870.219 168.851 867.776 171.718 866.76L179.437 864.019 180.749 855.053C180.848 854.391 181.522 853.916 182.259 854.012 182.996 854.101 183.517 854.706 183.418 855.367L182.007 865.043C181.944 865.478 181.621 865.849 181.163 866.01L172.707 869.018C170.873 869.671 169.696 871.227 169.696 872.993 169.696 873.872 170.495 874.589 171.475 874.589L205.515 874.589C206.495 874.589 207.295 873.872 207.295 872.993 207.295 871.227 206.109 869.671 204.285 869.018L195.828 866.01C195.37 865.849 195.056 865.478 194.992 865.043L193.582 855.367C193.483 854.706 194.004 854.101 194.741 854.012 195.478 853.924 196.152 854.391 196.251 855.053L197.563 864.019 205.282 866.76C208.149 867.776 210 870.219 210 872.985 210 875.202 207.996 877 205.524 877Z" stroke="#370054" stroke-width="2.29167" stroke-miterlimit="8" fill="none" fill-rule="evenodd"/><path d="M225.754 856 150.246 856C143.493 856 138 850.914 138 844.661L138 797.339C138 791.087 143.493 786 150.246 786L160.832 786C161.569 786 162.164 786.551 162.164 787.233 162.164 787.915 161.569 788.465 160.832 788.465L150.246 788.465C144.966 788.465 140.662 792.442 140.662 797.339L140.662 844.661C140.662 849.55 144.957 853.535 150.246 853.535L225.754 853.535C231.034 853.535 235.338 849.558 235.338 844.661L235.338 797.339C235.338 792.45 231.042 788.465 225.754 788.465L215.167 788.465C214.431 788.465 213.836 787.915 213.836 787.233 213.836 786.551 214.431 786 215.167 786L225.754 786C232.507 786 238 791.087 238 797.339L238 844.661C238 850.914 232.507 856 225.754 856Z" stroke="#370054" stroke-width="2.29167" stroke-miterlimit="8" fill="none" fill-rule="evenodd"/><path d="M169.672 815C168.937 815 168.344 814.44 168.344 813.745L168.344 771.511 149.328 771.511C148.593 771.511 148 770.95 148 770.256 148 769.561 148.593 769 149.328 769L169.672 769C170.407 769 171 769.561 171 770.256L171 813.745C171 814.44 170.407 815 169.672 815Z" stroke="#370054" stroke-width="2.29167" stroke-miterlimit="8" fill="none" fill-rule="evenodd"/><path d="M142.5 778C137.814 778 134 774.635 134 770.5 134 766.365 137.814 763 142.5 763 147.186 763 151 766.365 151 770.5 151 774.635 147.186 778 142.5 778ZM142.5 765.432C139.33 765.432 136.757 767.703 136.757 770.5 136.757 773.297 139.33 775.568 142.5 775.568 145.67 775.568 148.243 773.297 148.243 770.5 148.243 767.703 145.67 765.432 142.5 765.432Z" stroke="#370054" stroke-width="2.29167" stroke-miterlimit="8" fill="none" fill-rule="evenodd"/><path d="M206.328 815C205.593 815 205 814.44 205 813.745L205 770.256C205 769.561 205.593 769 206.328 769L226.672 769C227.407 769 228 769.561 228 770.256 228 770.95 227.407 771.511 226.672 771.511L207.656 771.511 207.656 813.745C207.656 814.44 207.063 815 206.328 815Z" stroke="#370054" stroke-width="2.29167" stroke-miterlimit="8" fill="none" fill-rule="evenodd"/><path d="M234 778C229.589 778 226 774.635 226 770.5 226 766.365 229.589 763 234 763 238.411 763 242 766.365 242 770.5 242 774.635 238.411 778 234 778ZM234 765.432C231.016 765.432 228.594 767.703 228.594 770.5 228.594 773.297 231.016 775.568 234 775.568 236.984 775.568 239.405 773.297 239.405 770.5 239.405 767.703 236.984 765.432 234 765.432Z" stroke="#370054" stroke-width="2.29167" stroke-miterlimit="8" fill="none" fill-rule="evenodd"/><path d="M188.5 815C187.67 815 187 814.446 187 813.76L187 759.24C187 758.554 187.67 758 188.5 758 189.33 758 190 758.554 190 759.24L190 813.76C190 814.446 189.33 815 188.5 815Z" stroke="#370054" stroke-width="2.29167" stroke-miterlimit="8" fill="none" fill-rule="evenodd"/><path d="M188 760C183.589 760 180 756.635 180 752.5 180 748.365 183.589 745 188 745 192.411 745 196 748.365 196 752.5 196 756.635 192.411 760 188 760ZM188 747.432C185.016 747.432 182.595 749.703 182.595 752.5 182.595 755.297 185.016 757.568 188 757.568 190.984 757.568 193.405 755.297 193.405 752.5 193.405 749.703 190.984 747.432 188 747.432Z" stroke="#370054" stroke-width="2.29167" stroke-miterlimit="8" fill="none" fill-rule="evenodd"/></g></svg>