<svg width="119" height="100" xmlns="http://www.w3.org/2000/svg" xmlns:xlink="http://www.w3.org/1999/xlink" xml:space="preserve" overflow="hidden"><defs><clipPath id="clip0"><rect x="174" y="229" width="119" height="100"/></clipPath></defs><g clip-path="url(#clip0)" transform="translate(-174 -229)"><path d="M279.679 310 188.329 310C183.738 310 180 306.579 180 302.367L180 250.633C180 246.421 183.738 243 188.329 243L217.469 243C218.171 243 218.737 243.52 218.737 244.164 218.737 244.807 218.171 245.327 217.469 245.327L188.329 245.327C185.133 245.327 182.537 247.709 182.537 250.633L182.537 302.367C182.537 305.292 185.133 307.673 188.329 307.673L279.679 307.673C282.868 307.673 285.463 305.292 285.463 302.367L285.463 250.633C285.463 247.709 282.868 245.327 279.679 245.327L250.549 245.327C249.847 245.327 249.28 244.807 249.28 244.164 249.28 243.52 249.847 243 250.549 243L279.679 243C284.271 243 288 246.421 288 250.633L288 302.367C288 306.579 284.271 310 279.679 310Z" stroke="#FFFFFF" stroke-width="2.29167" stroke-miterlimit="8" fill="#FFFFFF" fill-rule="evenodd"/><path d="M283.161 328 183.825 328C180.809 328 178.03 326.622 176.404 324.318 174.77 322.015 174.551 319.144 175.806 316.649L177.802 312.684C179.235 309.837 182.385 308 185.83 308L281.173 308C284.618 308 287.768 309.837 289.2 312.684L291.196 316.649C292.452 319.144 292.224 322.007 290.598 324.318 288.964 326.622 286.193 328 283.177 328ZM185.821 310.296C183.362 310.296 181.121 311.605 180.094 313.641L178.097 317.606C177.204 319.381 177.364 321.433 178.527 323.079 179.689 324.724 181.669 325.704 183.825 325.704L283.161 325.704C285.317 325.704 287.296 324.724 288.459 323.071 289.621 321.425 289.781 319.381 288.888 317.598L286.892 313.633C285.873 311.605 283.624 310.289 281.164 310.289L185.821 310.289Z" stroke="#FFFFFF" stroke-width="2.29167" stroke-miterlimit="8" fill="#FFFFFF" fill-rule="evenodd"/><path d="M233.991 274C229.555 274 225.914 271.232 225.713 267.702L224.01 238.303C223.897 236.314 224.718 234.372 226.324 232.846 228.228 231.038 231.022 230 234 230 236.978 230 239.763 231.038 241.676 232.846 243.283 234.372 244.103 236.306 243.99 238.303L242.287 267.702C242.086 271.232 238.445 274 234.009 274ZM233.991 232.367C231.739 232.367 229.634 233.137 228.219 234.474 227.111 235.527 226.543 236.841 226.621 238.177L228.324 267.576C228.455 269.856 230.944 271.633 233.983 271.633 237.021 271.633 239.51 269.849 239.641 267.576L241.344 238.177C241.423 236.841 240.855 235.52 239.746 234.474 238.331 233.137 236.227 232.367 233.974 232.367Z" stroke="#FFFFFF" stroke-width="2.29167" stroke-miterlimit="8" fill="#FFFFFF" fill-rule="evenodd"/><path d="M233.5 295C228.816 295 225 291.417 225 287 225 282.584 228.808 279 233.5 279 238.193 279 242 282.584 242 287 242 291.417 238.193 295 233.5 295ZM233.5 281.387C230.206 281.387 227.527 283.908 227.527 287.008 227.527 290.108 230.206 292.63 233.5 292.63 236.794 292.63 239.473 290.108 239.473 287.008 239.473 283.908 236.794 281.387 233.5 281.387Z" stroke="#FFFFFF" stroke-width="2.29167" stroke-miterlimit="8" fill="#FFFFFF" fill-rule="evenodd"/></g></svg>