<svg width="89" height="80" xmlns="http://www.w3.org/2000/svg" xmlns:xlink="http://www.w3.org/1999/xlink" xml:space="preserve" overflow="hidden"><defs><clipPath id="clip0"><rect x="337" y="242" width="89" height="80"/></clipPath></defs><g clip-path="url(#clip0)" transform="translate(-337 -242)"><path d="M373.962 315 365.51 315C361.966 315 358.886 312.755 358.022 309.547 358.005 309.486 358 309.425 358 309.358L358 295.311C358 295.25 358 295.184 358.022 295.123 358.574 293.086 360.035 291.391 362.048 290.444 362.721 289.741 367.075 285.047 367.824 280.322 368.398 277.649 369.7 277.043 370.696 277.002 372.392 276.931 374.087 278.606 374.601 280.215 374.667 280.388 376.429 285.026 373.196 289.665L377.271 289.665C381.532 289.665 385 292.893 385 296.859 385 296.9 385 296.935 384.989 296.976L383.228 307.602C382.517 311.884 378.622 314.995 373.967 314.995ZM359.635 309.262C360.352 311.746 362.753 313.473 365.51 313.473L373.962 313.473C377.802 313.473 381.018 310.906 381.603 307.373L383.354 296.808C383.321 293.712 380.602 291.202 377.271 291.202L371.566 291.202C371.248 291.202 370.953 291.029 370.822 290.759 370.685 290.49 370.734 290.174 370.942 289.945 374.903 285.597 373.07 280.755 373.053 280.704 372.693 279.574 371.577 278.499 370.783 278.535 370.215 278.56 369.728 279.309 369.449 280.592 368.623 285.77 364.033 290.688 363.273 291.477 363.196 291.589 363.082 291.686 362.939 291.747 361.304 292.47 360.111 293.799 359.646 295.413L359.646 309.267Z" stroke="#FFFFFF" stroke-width="2.29167" stroke-miterlimit="8" fill="#FFFFFF" fill-rule="evenodd"/><path d="M354.269 315 353.731 315C351.123 315 349 312.966 349 310.468L349 294.532C349 292.034 351.123 290 353.731 290L354.269 290C356.877 290 359 292.034 359 294.532L359 310.468C359 312.966 356.877 315 354.269 315ZM353.731 291.535C352.001 291.535 350.596 292.88 350.596 294.537L350.596 310.473C350.596 312.13 352.001 313.476 353.731 313.476L354.269 313.476C355.998 313.476 357.403 312.13 357.403 310.473L357.403 294.537C357.403 292.88 355.998 291.535 354.269 291.535L353.731 291.535Z" stroke="#FFFFFF" stroke-width="2.29167" stroke-miterlimit="8" fill="#FFFFFF" fill-rule="evenodd"/><path d="M392.675 321C392.228 321 391.863 320.668 391.858 320.254 391.646 308.008 396.262 289.506 409.86 274.326 410.148 274.004 410.66 273.958 411.008 274.226L422.238 282.844 408.771 251.521 373.029 245.065 384.259 253.683C384.607 253.95 384.656 254.424 384.368 254.747 370.77 269.927 351.99 277.552 338.954 279.628 338.507 279.699 338.088 279.422 338.012 279.014 337.936 278.6 338.235 278.212 338.676 278.142 351.261 276.141 369.317 268.843 382.588 254.364L369.529 244.339C369.241 244.118 369.154 243.745 369.311 243.432 369.469 243.12 369.845 242.948 370.204 243.014L409.522 250.115C409.794 250.165 410.023 250.337 410.126 250.579L424.943 285.036C425.079 285.359 424.965 285.721 424.665 285.928 424.361 286.135 423.952 286.12 423.664 285.898L410.605 275.874C397.693 290.625 393.29 308.406 393.496 320.229 393.502 320.648 393.143 320.99 392.691 320.995L392.675 320.995Z" stroke="#FFFFFF" stroke-width="2.29167" stroke-miterlimit="8" fill="#FFFFFF" fill-rule="evenodd"/></g></svg>